<?xml version="1.0" encoding="UTF-8"?>
<svg id="Layer_1" data-name="Layer 1" xmlns="http://www.w3.org/2000/svg" xmlns:xlink="http://www.w3.org/1999/xlink" viewBox="0 0 2147.69 1080">
  <defs>
    <style>
      .cls-1 {
        fill: url(#linear-gradient);
      }

      .cls-2 {
        fill: #2f2d79;
      }

      .cls-3 {
        fill: url(#linear-gradient-3);
      }

      .cls-4 {
        fill: url(#linear-gradient-4);
      }

      .cls-5 {
        fill: url(#linear-gradient-2);
      }
    </style>
    <linearGradient id="linear-gradient" x1="1962.74" y1="1191.17" x2="2138.86" y2="643.25" gradientTransform="translate(-154.5 -382.93)" gradientUnits="userSpaceOnUse">
      <stop offset=".5" stop-color="#a8ce38"/>
      <stop offset=".9" stop-color="#a7ce3a" stop-opacity="0"/>
    </linearGradient>
    <linearGradient id="linear-gradient-2" x1="1972.43" y1="576.89" x2="1972.43" y2="1228.95" gradientTransform="translate(-154.5 -382.93)" gradientUnits="userSpaceOnUse">
      <stop offset=".22" stop-color="#045ba7"/>
      <stop offset=".65" stop-color="#26a7df"/>
      <stop offset=".97" stop-color="#47c6f3"/>
    </linearGradient>
    <linearGradient id="linear-gradient-3" x1="7777.49" y1="4064.17" x2="7953.61" y2="3516.26" gradientTransform="translate(8116.95 4336.06) rotate(-180)" xlink:href="#linear-gradient"/>
    <linearGradient id="linear-gradient-4" x1="7787.19" y1="3449.89" x2="7787.19" y2="4101.96" gradientTransform="translate(8116.95 4336.06) rotate(-180)" gradientUnits="userSpaceOnUse">
      <stop offset=".22" stop-color="#295daa"/>
      <stop offset=".64" stop-color="#28addf"/>
      <stop offset=".97" stop-color="#4dc7ee"/>
    </linearGradient>
  </defs>
  <path class="cls-2" d="M702.68,333.7c-4.02,0-7.29,3.26-7.29,7.29v246.58c0,56.98-20.24,81.74-68.54,81.74-33.07,0-64.79-13.42-94.75-37.17-4.59-3.64-11.32-.45-11.32,5.41v74.36c0,4.32,1.99,8.65,5.73,10.82,30.03,17.44,55.91,28.51,100.33,29.79,99.48,2.89,160.17-54.86,160.17-155.65v-255.88c0-4.02-3.26-7.29-7.29-7.29h-77.06Zm716.58,160.98c-61.3-6.8-79.26-17.33-79.26-40.86,0-27.86,28.49-45.2,73.69-45.2,53.76,0,99.57,24.38,119.45,36.83,4.61,2.89,10.58-.49,10.58-5.93v-74.52c0-4.62-2.43-8.92-6.42-11.24-27.08-15.72-75-26.24-122.36-26.24-104.02,0-165.96,49.52-165.96,131.88,0,75.54,40.86,110.84,146.75,122.6,62.55,6.82,81.74,17.96,81.74,42.72,0,29.72-26.63,45.2-76.78,45.2-61.48,0-116.94-29.25-139.35-42.8-4.63-2.8-10.49,.56-10.49,5.99v75.05c0,4.36,2.08,8.52,5.75,10.85,33.07,21,83.51,32.03,147.18,32.03,105.27,0,164.71-46.45,164.71-128.81s-40.86-115.78-149.23-127.56Zm-276.62,42.4c-2.57-.89-2.91-4.36-.51-5.64,14.98-8.01,47.39-31.49,47.39-84.42,0-74.31-50.16-113.32-146.75-113.32h-169.82c-4.02,0-7.29,3.26-7.29,7.29v396.57c0,4.02,3.26,7.29,7.29,7.29h185.3c95.98,0,146.13-39,146.13-114.55,0-65.42-43.47-87.02-61.75-93.21Zm-185.31-117.48c0-2.3,1.86-4.16,4.16-4.16h80.06c37.13,0,55.73,13.62,55.73,41.48s-19.21,42.72-61.93,42.72h-73.85c-2.3,0-4.16-1.86-4.16-4.16v-75.87Zm97.84,243.52h-93.68c-2.3,0-4.16-1.86-4.16-4.16v-78.37c0-2.3,1.86-4.16,4.16-4.16h88.09c42.11,0,61.93,15.48,61.93,43.95s-18.58,42.74-56.34,42.74Z"/>
  <path class="cls-1" d="M1926.68,299.13c-1.43-9.59-3.06-19.14-4.87-28.62h24.11c1.7,8.97,3.2,17.96,4.56,27,14.81,98.94,9.6,198.66-15.5,296.37-19.44,75.66-49.9,146.64-90.86,211.74-10.13,16.13-20.91,31.89-32.31,47.28h-26.64c33.81-44.55,62.15-92.39,84.82-143.06,17.04-38.02,30.86-77.63,41.4-118.66,24.74-96.3,29.88-194.57,15.28-292.07Z"/>
  <path class="cls-5" d="M1839.31,361.98c-8.95-59.78-25.27-117.63-48.71-172.87h58.57c20.66,52.98,35.31,108.09,43.81,164.84,15.25,101.82,9.88,204.43-15.95,304.98-4.41,17.22-9.41,34.2-14.94,50.92-10.85,32.92-23.86,64.88-38.96,95.78-7.81,16.06-16.21,31.82-25.14,47.28h-63.56c40.75-63.62,70.96-133.16,90.04-207.47,15.94-62.01,23.5-124.86,22.65-187.75-.42-31.91-3.02-63.85-7.8-95.7Z"/>
  <path class="cls-2" d="M1527.24,891.01c34.22-30.24,65.42-63.82,93.37-100.46,57.28-75.1,98.34-159.97,122.06-252.28,23.71-92.29,28.65-186.45,14.65-279.86-3.51-23.41-8.16-46.52-13.95-69.3h74.43c4.41,19.32,8.12,38.85,11.07,58.59,10.47,69.93,11.34,140.22,2.64,209.99-4.12,33.01-10.38,65.91-18.78,98.6-26.14,101.73-71.41,195.3-134.61,278.14-15.01,19.68-30.88,38.55-47.55,56.58h-103.34Z"/>
  <path class="cls-3" d="M221.02,781c1.43,9.59,3.06,19.14,4.87,28.62h-24.11c-1.7-8.97-3.2-17.96-4.56-27-14.81-98.94-9.6-198.66,15.5-296.37,19.44-75.66,49.9-146.64,90.86-211.74,10.13-16.13,20.91-31.89,32.31-47.28h26.64c-33.81,44.55-62.15,92.39-84.82,143.06-17.04,38.02-30.86,77.63-41.4,118.66-24.74,96.3-29.88,194.57-15.28,292.07Z"/>
  <path class="cls-4" d="M308.39,718.14c8.95,59.78,25.27,117.63,48.71,172.87h-58.57c-20.66-52.98-35.31-108.09-43.81-164.84-15.25-101.82-9.88-204.43,15.95-304.98,4.41-17.22,9.41-34.2,14.94-50.92,10.85-32.92,23.86-64.88,38.96-95.78,7.81-16.06,16.21-31.82,25.14-47.28h63.56c-40.75,63.62-70.96,133.16-90.04,207.47-15.94,62.01-23.5,124.86-22.65,187.75,.42,31.91,3.02,63.85,7.8,95.7Z"/>
  <path class="cls-2" d="M620.46,189.12c-34.22,30.24-65.42,63.82-93.37,100.46-57.28,75.1-98.34,159.97-122.06,252.28-23.71,92.29-28.65,186.45-14.65,279.86,3.51,23.41,8.16,46.52,13.95,69.3h-74.43c-4.41-19.32-8.12-38.85-11.07-58.59-10.47-69.93-11.34-140.22-2.64-209.99,4.12-33.01,10.38-65.91,18.78-98.6,26.14-101.73,71.41-195.3,134.61-278.14,15.01-19.68,30.88-38.55,47.55-56.58h103.34Z"/>
</svg>